<svg width="24" height="26" viewBox="0 0 24 26" fill="none" xmlns="http://www.w3.org/2000/svg">
<path d="M9.33331 3.66667C9.33331 2.95942 9.61426 2.28115 10.1144 1.78105C10.6145 1.28095 11.2927 1 12 1C12.7072 1 13.3855 1.28095 13.8856 1.78105C14.3857 2.28115 14.6666 2.95942 14.6666 3.66667C16.1979 4.3907 17.5032 5.51777 18.4427 6.92707C19.3822 8.33636 19.9206 9.97476 20 11.6667V15.6667C20.1003 16.4956 20.3939 17.2894 20.8571 17.9842C21.3202 18.6789 21.9401 19.2552 22.6666 19.6667H1.33331C2.0599 19.2552 2.67973 18.6789 3.1429 17.9842C3.60607 17.2894 3.89964 16.4956 3.99998 15.6667V11.6667C4.07939 9.97476 4.61771 8.33636 5.55725 6.92707C6.49678 5.51777 7.8021 4.3907 9.33331 3.66667" stroke="#202142" stroke-width="2" stroke-linecap="round" stroke-linejoin="round"/>
<path d="M8 19.6667V21C8 22.0609 8.42143 23.0783 9.17157 23.8284C9.92172 24.5786 10.9391 25 12 25C13.0609 25 14.0783 24.5786 14.8284 23.8284C15.5786 23.0783 16 22.0609 16 21V19.6667" stroke="#202142" stroke-width="2" stroke-linecap="round" stroke-linejoin="round"/>
</svg>
